<svg xmlns="http://www.w3.org/2000/svg" version="1.1" xmlns:xlink="http://www.w3.org/1999/xlink" xmlns:svgjs="http://svgjs.dev/svgjs" viewBox="0 0 800 800"><defs><linearGradient x1="50%" y1="0%" x2="50%" y2="100%" id="ffflurry-grad" gradientTransform="rotate(270)"><stop stop-color="hsl(180, 11%, 3%)" stop-opacity="1" offset="0%"></stop><stop stop-color="hsl(115  , 30%, 5%)" stop-opacity="1" offset="45%"></stop><stop stop-color="hsl(115  , 30%, 45%)" stop-opacity="1" offset="100%"></stop></linearGradient></defs><rect width="100%" height="100%" fill="hsl(180, 11%, 3%)"></rect><g fill="url(#ffflurry-grad)"><rect width="734" height="3" x="21" y="300.5" rx="1.5" transform="rotate(45, 388, 302)" opacity="0.82"></rect><rect width="49" height="3" x="328.5" y="622.5" rx="1.5" transform="rotate(45, 353, 624)" opacity="0.14"></rect><rect width="307" height="3" x="344.5" y="30.5" rx="1.5" transform="rotate(45, 498, 32)" opacity="0.46"></rect><rect width="457" height="3" x="248.5" y="226.5" rx="1.5" transform="rotate(45, 477, 228)" opacity="0.81"></rect><rect width="574" height="3" x="314" y="308.5" rx="1.5" transform="rotate(45, 601, 310)" opacity="0.19"></rect><rect width="198" height="3" x="-7" y="37.5" rx="1.5" transform="rotate(45, 92, 39)" opacity="0.97"></rect><rect width="181" height="3" x="678.5" y="52.5" rx="1.5" transform="rotate(45, 769, 54)" opacity="0.63"></rect><rect width="145" height="3" x="210.5" y="698.5" rx="1.5" transform="rotate(45, 283, 700)" opacity="0.26"></rect><rect width="273" height="3" x="463.5" y="764.5" rx="1.5" transform="rotate(45, 600, 766)" opacity="0.33"></rect><rect width="637" height="3" x="24.5" y="397.5" rx="1.5" transform="rotate(45, 343, 399)" opacity="0.98"></rect><rect width="230" height="3" x="385" y="622.5" rx="1.5" transform="rotate(45, 500, 624)" opacity="0.76"></rect><rect width="382" height="3" x="577" y="745.5" rx="1.5" transform="rotate(45, 768, 747)" opacity="0.94"></rect><rect width="544" height="3" x="363" y="131.5" rx="1.5" transform="rotate(45, 635, 133)" opacity="0.25"></rect><rect width="530" height="3" x="283" y="84.5" rx="1.5" transform="rotate(45, 548, 86)" opacity="0.23"></rect><rect width="633" height="3" x="-95.5" y="266.5" rx="1.5" transform="rotate(45, 221, 268)" opacity="0.60"></rect><rect width="555" height="3" x="-203.5" y="201.5" rx="1.5" transform="rotate(45, 74, 203)" opacity="0.71"></rect><rect width="68" height="3" x="25" y="736.5" rx="1.5" transform="rotate(45, 59, 738)" opacity="0.75"></rect><rect width="415" height="3" x="545.5" y="368.5" rx="1.5" transform="rotate(45, 753, 370)" opacity="0.52"></rect><rect width="566" height="3" x="-7" y="127.5" rx="1.5" transform="rotate(45, 276, 129)" opacity="0.81"></rect><rect width="348" height="3" x="546" y="98.5" rx="1.5" transform="rotate(45, 720, 100)" opacity="0.44"></rect><rect width="304" height="3" x="552" y="310.5" rx="1.5" transform="rotate(45, 704, 312)" opacity="0.95"></rect><rect width="394" height="3" x="470" y="610.5" rx="1.5" transform="rotate(45, 667, 612)" opacity="0.71"></rect><rect width="149" height="3" x="-48.5" y="41.5" rx="1.5" transform="rotate(45, 26, 43)" opacity="0.51"></rect><rect width="64" height="3" x="406" y="629.5" rx="1.5" transform="rotate(45, 438, 631)" opacity="0.59"></rect><rect width="453" height="3" x="188.5" y="541.5" rx="1.5" transform="rotate(45, 415, 543)" opacity="0.15"></rect><rect width="266" height="3" x="10" y="316.5" rx="1.5" transform="rotate(45, 143, 318)" opacity="0.27"></rect><rect width="227" height="3" x="446.5" y="180.5" rx="1.5" transform="rotate(45, 560, 182)" opacity="0.54"></rect><rect width="361" height="3" x="-3.5" y="182.5" rx="1.5" transform="rotate(45, 177, 184)" opacity="0.78"></rect><rect width="183" height="3" x="208.5" y="219.5" rx="1.5" transform="rotate(45, 300, 221)" opacity="0.55"></rect><rect width="394" height="3" x="310" y="695.5" rx="1.5" transform="rotate(45, 507, 697)" opacity="0.47"></rect><rect width="356" height="3" x="130" y="21.5" rx="1.5" transform="rotate(45, 308, 23)" opacity="0.24"></rect><rect width="186" height="3" x="173" y="769.5" rx="1.5" transform="rotate(45, 266, 771)" opacity="0.72"></rect><rect width="383" height="3" x="-133.5" y="460.5" rx="1.5" transform="rotate(45, 58, 462)" opacity="0.67"></rect><rect width="332" height="3" x="246" y="31.5" rx="1.5" transform="rotate(45, 412, 33)" opacity="0.21"></rect><rect width="50" height="3" x="556" y="414.5" rx="1.5" transform="rotate(45, 581, 416)" opacity="0.81"></rect><rect width="101" height="3" x="528.5" y="676.5" rx="1.5" transform="rotate(45, 579, 678)" opacity="0.83"></rect><rect width="353" height="3" x="583.5" y="648.5" rx="1.5" transform="rotate(45, 760, 650)" opacity="0.18"></rect><rect width="509" height="3" x="11.5" y="471.5" rx="1.5" transform="rotate(45, 266, 473)" opacity="0.95"></rect><rect width="325" height="3" x="223.5" y="95.5" rx="1.5" transform="rotate(45, 386, 97)" opacity="0.32"></rect><rect width="166" height="3" x="295" y="757.5" rx="1.5" transform="rotate(45, 378, 759)" opacity="0.64"></rect><rect width="544" height="3" x="-37" y="51.5" rx="1.5" transform="rotate(45, 235, 53)" opacity="0.07"></rect><rect width="143" height="3" x="463.5" y="261.5" rx="1.5" transform="rotate(45, 535, 263)" opacity="0.41"></rect><rect width="95" height="3" x="257.5" y="549.5" rx="1.5" transform="rotate(45, 305, 551)" opacity="0.63"></rect><rect width="325" height="3" x="528.5" y="440.5" rx="1.5" transform="rotate(45, 691, 442)" opacity="0.45"></rect><rect width="400" height="3" x="-154" y="311.5" rx="1.5" transform="rotate(45, 46, 313)" opacity="0.47"></rect><rect width="148" height="3" x="289" y="161.5" rx="1.5" transform="rotate(45, 363, 163)" opacity="0.09"></rect><rect width="275" height="3" x="489.5" y="695.5" rx="1.5" transform="rotate(45, 627, 697)" opacity="0.53"></rect><rect width="245" height="3" x="641.5" y="209.5" rx="1.5" transform="rotate(45, 764, 211)" opacity="0.76"></rect><rect width="99" height="3" x="719.5" y="474.5" rx="1.5" transform="rotate(45, 769, 476)" opacity="0.52"></rect><rect width="426" height="3" x="-152" y="598.5" rx="1.5" transform="rotate(45, 61, 600)" opacity="0.54"></rect><rect width="138" height="3" x="333" y="691.5" rx="1.5" transform="rotate(45, 402, 693)" opacity="0.67"></rect><rect width="465" height="3" x="-2.5" y="379.5" rx="1.5" transform="rotate(45, 230, 381)" opacity="0.76"></rect><rect width="87" height="3" x="598.5" y="35.5" rx="1.5" transform="rotate(45, 642, 37)" opacity="0.52"></rect><rect width="463" height="3" x="55.5" y="325.5" rx="1.5" transform="rotate(45, 287, 327)" opacity="0.22"></rect><rect width="77" height="3" x="376.5" y="206.5" rx="1.5" transform="rotate(45, 415, 208)" opacity="0.75"></rect><rect width="163" height="3" x="370.5" y="428.5" rx="1.5" transform="rotate(45, 452, 430)" opacity="0.71"></rect><rect width="568" height="3" x="-110" y="555.5" rx="1.5" transform="rotate(45, 174, 557)" opacity="0.53"></rect><rect width="432" height="3" x="-83" y="402.5" rx="1.5" transform="rotate(45, 133, 404)" opacity="0.32"></rect><rect width="171" height="3" x="600.5" y="206.5" rx="1.5" transform="rotate(45, 686, 208)" opacity="0.57"></rect><rect width="292" height="3" x="214" y="484.5" rx="1.5" transform="rotate(45, 360, 486)" opacity="0.95"></rect><rect width="110" height="3" x="645" y="769.5" rx="1.5" transform="rotate(45, 700, 771)" opacity="0.83"></rect><rect width="308" height="3" x="426" y="552.5" rx="1.5" transform="rotate(45, 580, 554)" opacity="0.73"></rect><rect width="196" height="3" x="62" y="67.5" rx="1.5" transform="rotate(45, 160, 69)" opacity="0.64"></rect><rect width="520" height="3" x="477" y="554.5" rx="1.5" transform="rotate(45, 737, 556)" opacity="0.42"></rect><rect width="157" height="3" x="259.5" y="61.5" rx="1.5" transform="rotate(45, 338, 63)" opacity="0.67"></rect><rect width="229" height="3" x="135.5" y="620.5" rx="1.5" transform="rotate(45, 250, 622)" opacity="0.48"></rect><rect width="427" height="3" x="-47.5" y="710.5" rx="1.5" transform="rotate(45, 166, 712)" opacity="0.13"></rect><rect width="258" height="3" x="504" y="245.5" rx="1.5" transform="rotate(45, 633, 247)" opacity="0.94"></rect><rect width="200" height="3" x="-49" y="123.5" rx="1.5" transform="rotate(45, 51, 125)" opacity="0.33"></rect><rect width="50" height="3" x="603" y="502.5" rx="1.5" transform="rotate(45, 628, 504)" opacity="0.67"></rect><rect width="180" height="3" x="407" y="529.5" rx="1.5" transform="rotate(45, 497, 531)" opacity="0.77"></rect><rect width="500" height="3" x="249" y="341.5" rx="1.5" transform="rotate(45, 499, 343)" opacity="0.51"></rect><rect width="71" height="3" x="527.5" y="613.5" rx="1.5" transform="rotate(45, 563, 615)" opacity="0.61"></rect><rect width="320" height="3" x="529" y="699.5" rx="1.5" transform="rotate(45, 689, 701)" opacity="0.66"></rect><rect width="401" height="3" x="-14.5" y="456.5" rx="1.5" transform="rotate(45, 186, 458)" opacity="0.09"></rect><rect width="225" height="3" x="375.5" y="761.5" rx="1.5" transform="rotate(45, 488, 763)" opacity="0.16"></rect><rect width="232" height="3" x="346" y="125.5" rx="1.5" transform="rotate(45, 462, 127)" opacity="0.33"></rect></g></svg>