<svg xmlns="http://www.w3.org/2000/svg" version="1.1" xmlns:xlink="http://www.w3.org/1999/xlink" xmlns:svgjs="http://svgjs.dev/svgjs" viewBox="0 0 800 800"><defs><linearGradient x1="50%" y1="0%" x2="50%" y2="100%" id="ffflurry-grad" gradientTransform="rotate(270)"><stop stop-color="none" stop-opacity="1" offset="0%"></stop><stop stop-color="hsl(115  , 30%, 5%)" stop-opacity="1" offset="45%"></stop><stop stop-color="hsl(115  , 30%, 45%)" stop-opacity="1" offset="100%"></stop></linearGradient></defs><rect width="100%" height="100%" fill="hsl(180, 11%, 3%)"></rect><g fill="url(#ffflurry-grad)"><rect width="563" height="3" x="-240.5" y="75.5" rx="1.5" transform="rotate(140, 41, 77)" opacity="0.80"></rect><rect width="119" height="3" x="686.5" y="612.5" rx="1.5" transform="rotate(140, 746, 614)" opacity="0.97"></rect><rect width="687" height="3" x="103.5" y="187.5" rx="1.5" transform="rotate(140, 447, 189)" opacity="0.10"></rect><rect width="670" height="3" x="-62" y="47.5" rx="1.5" transform="rotate(140, 273, 49)" opacity="0.63"></rect><rect width="520" height="3" x="364" y="179.5" rx="1.5" transform="rotate(140, 624, 181)" opacity="0.65"></rect><rect width="681" height="3" x="-63.5" y="731.5" rx="1.5" transform="rotate(140, 277, 733)" opacity="0.71"></rect><rect width="119" height="3" x="682.5" y="721.5" rx="1.5" transform="rotate(140, 742, 723)" opacity="0.30"></rect><rect width="604" height="3" x="-260" y="715.5" rx="1.5" transform="rotate(140, 42, 717)" opacity="0.43"></rect><rect width="472" height="3" x="64" y="443.5" rx="1.5" transform="rotate(140, 300, 445)" opacity="0.15"></rect><rect width="642" height="3" x="132" y="62.5" rx="1.5" transform="rotate(140, 453, 64)" opacity="0.14"></rect><rect width="117" height="3" x="-7.5" y="439.5" rx="1.5" transform="rotate(140, 51, 441)" opacity="0.67"></rect><rect width="964" height="3" x="77" y="309.5" rx="1.5" transform="rotate(140, 559, 311)" opacity="0.68"></rect><rect width="81" height="3" x="700.5" y="238.5" rx="1.5" transform="rotate(140, 741, 240)" opacity="0.57"></rect><rect width="559" height="3" x="465.5" y="500.5" rx="1.5" transform="rotate(140, 745, 502)" opacity="0.60"></rect><rect width="232" height="3" x="179" y="167.5" rx="1.5" transform="rotate(140, 295, 169)" opacity="0.68"></rect><rect width="142" height="3" x="102" y="259.5" rx="1.5" transform="rotate(140, 173, 261)" opacity="0.88"></rect><rect width="414" height="3" x="112" y="602.5" rx="1.5" transform="rotate(140, 319, 604)" opacity="0.86"></rect><rect width="601" height="3" x="428.5" y="356.5" rx="1.5" transform="rotate(140, 729, 358)" opacity="0.43"></rect><rect width="439" height="3" x="416.5" y="569.5" rx="1.5" transform="rotate(140, 636, 571)" opacity="0.98"></rect><rect width="67" height="3" x="113.5" y="164.5" rx="1.5" transform="rotate(140, 147, 166)" opacity="0.56"></rect><rect width="649" height="3" x="301.5" y="739.5" rx="1.5" transform="rotate(140, 626, 741)" opacity="0.59"></rect><rect width="471" height="3" x="-96.5" y="628.5" rx="1.5" transform="rotate(140, 139, 630)" opacity="0.51"></rect><rect width="628" height="3" x="129" y="724.5" rx="1.5" transform="rotate(140, 443, 726)" opacity="0.94"></rect><rect width="901" height="3" x="-39.5" y="322.5" rx="1.5" transform="rotate(140, 411, 324)" opacity="0.88"></rect><rect width="426" height="3" x="317" y="632.5" rx="1.5" transform="rotate(140, 530, 634)" opacity="0.69"></rect><rect width="648" height="3" x="-269" y="287.5" rx="1.5" transform="rotate(140, 55, 289)" opacity="0.36"></rect><rect width="145" height="3" x="72.5" y="746.5" rx="1.5" transform="rotate(140, 145, 748)" opacity="0.80"></rect><rect width="135" height="3" x="57.5" y="79.5" rx="1.5" transform="rotate(140, 125, 81)" opacity="1.00"></rect><rect width="538" height="3" x="-76" y="521.5" rx="1.5" transform="rotate(140, 193, 523)" opacity="0.61"></rect><rect width="354" height="3" x="-24" y="403.5" rx="1.5" transform="rotate(140, 153, 405)" opacity="0.66"></rect><rect width="791" height="3" x="247.5" y="426.5" rx="1.5" transform="rotate(140, 643, 428)" opacity="0.33"></rect><rect width="496" height="3" x="289" y="480.5" rx="1.5" transform="rotate(140, 537, 482)" opacity="0.65"></rect><rect width="136" height="3" x="359" y="488.5" rx="1.5" transform="rotate(140, 427, 490)" opacity="0.38"></rect><rect width="505" height="3" x="367.5" y="54.5" rx="1.5" transform="rotate(140, 620, 56)" opacity="0.87"></rect><rect width="139" height="3" x="680.5" y="83.5" rx="1.5" transform="rotate(140, 750, 85)" opacity="0.24"></rect><rect width="946" height="3" x="-201" y="316.5" rx="1.5" transform="rotate(140, 272, 318)" opacity="0.38"></rect><rect width="97" height="3" x="1.5" y="555.5" rx="1.5" transform="rotate(140, 50, 557)" opacity="0.41"></rect></g></svg>