<svg xmlns="http://www.w3.org/2000/svg" version="1.1" xmlns:xlink="http://www.w3.org/1999/xlink" xmlns:svgjs="http://svgjs.dev/svgjs" viewBox="0 0 800 800"><defs><linearGradient x1="50%" y1="0%" x2="50%" y2="100%" id="ffflurry-grad" gradientTransform="rotate(270)"><stop stop-color="hsl(180, 11%, 3%)" stop-opacity="1" offset="0%"></stop><stop stop-color="hsl(115  , 30%, 5%)" stop-opacity="1" offset="45%"></stop><stop stop-color="hsl(115  , 30%, 45%)" stop-opacity="1" offset="100%"></stop></linearGradient></defs><rect width="100%" height="100%" fill="hsl(180, 11%, 3%)"></rect><g fill="url(#ffflurry-grad)"><rect width="468" height="3" x="-150" y="235.5" rx="1.5" transform="rotate(270, 84, 237)" opacity="0.96"></rect><rect width="1008" height="3" x="-443" y="416.5" rx="1.5" transform="rotate(270, 61, 418)" opacity="0.54"></rect><rect width="252" height="3" x="-57" y="743.5" rx="1.5" transform="rotate(270, 69, 745)" opacity="0.98"></rect><rect width="558" height="3" x="-82" y="710.5" rx="1.5" transform="rotate(270, 197, 712)" opacity="0.35"></rect><rect width="999" height="3" x="-124.5" y="404.5" rx="1.5" transform="rotate(270, 375, 406)" opacity="0.12"></rect><rect width="864" height="3" x="-251" y="86.5" rx="1.5" transform="rotate(270, 181, 88)" opacity="0.87"></rect><rect width="378" height="3" x="293" y="116.5" rx="1.5" transform="rotate(270, 482, 118)" opacity="0.94"></rect><rect width="267" height="3" x="339.5" y="751.5" rx="1.5" transform="rotate(270, 473, 753)" opacity="0.12"></rect><rect width="394" height="3" x="369" y="736.5" rx="1.5" transform="rotate(270, 566, 738)" opacity="0.83"></rect><rect width="586" height="3" x="461" y="721.5" rx="1.5" transform="rotate(270, 754, 723)" opacity="0.83"></rect><rect width="312" height="3" x="395" y="447.5" rx="1.5" transform="rotate(270, 551, 449)" opacity="0.83"></rect><rect width="284" height="3" x="189" y="68.5" rx="1.5" transform="rotate(270, 331, 70)" opacity="0.30"></rect><rect width="822" height="3" x="-353" y="609.5" rx="1.5" transform="rotate(270, 58, 611)" opacity="0.85"></rect><rect width="219" height="3" x="-57.5" y="25.5" rx="1.5" transform="rotate(270, 52, 27)" opacity="0.90"></rect><rect width="556" height="3" x="-102" y="534.5" rx="1.5" transform="rotate(270, 176, 536)" opacity="0.63"></rect><rect width="510" height="3" x="333" y="217.5" rx="1.5" transform="rotate(270, 588, 219)" opacity="0.09"></rect><rect width="273" height="3" x="-77.5" y="106.5" rx="1.5" transform="rotate(270, 59, 108)" opacity="0.47"></rect><rect width="284" height="3" x="322" y="584.5" rx="1.5" transform="rotate(270, 464, 586)" opacity="0.85"></rect><rect width="703" height="3" x="254.5" y="627.5" rx="1.5" transform="rotate(270, 606, 629)" opacity="0.47"></rect><rect width="794" height="3" x="313" y="355.5" rx="1.5" transform="rotate(270, 710, 357)" opacity="0.16"></rect><rect width="978" height="3" x="238" y="556.5" rx="1.5" transform="rotate(270, 727, 558)" opacity="0.90"></rect><rect width="490" height="3" x="161" y="685.5" rx="1.5" transform="rotate(270, 406, 687)" opacity="0.33"></rect><rect width="470" height="3" x="-37" y="359.5" rx="1.5" transform="rotate(270, 198, 361)" opacity="0.73"></rect><rect width="508" height="3" x="412" y="744.5" rx="1.5" transform="rotate(270, 666, 746)" opacity="0.33"></rect><rect width="568" height="3" x="22" y="233.5" rx="1.5" transform="rotate(270, 306, 235)" opacity="0.26"></rect><rect width="277" height="3" x="182.5" y="750.5" rx="1.5" transform="rotate(270, 321, 752)" opacity="0.36"></rect><rect width="373" height="3" x="123.5" y="593.5" rx="1.5" transform="rotate(270, 310, 595)" opacity="0.67"></rect><rect width="99" height="3" x="666.5" y="100.5" rx="1.5" transform="rotate(270, 716, 102)" opacity="1.00"></rect></g></svg>